<svg width="140" height="60" viewBox="0 0 140 60" fill="none" xmlns="http://www.w3.org/2000/svg">
<g clip-path="url(#clip0_1_2)">
<path d="M21.368 -0.0880013H59.256V8.04H31.736V27.24H21.368V-0.0880013ZM21.368 24.808H59.704V32.936H21.368V24.808ZM79.859 -0.216003H118.259V7.912H90.227V29.096H79.859V-0.216003ZM79.859 24.872H118.771V33H79.859V24.872ZM81.843 12.136H117.747V20.264H81.843V12.136Z" fill="#B27547" fill-opacity="0.85"/>
<path d="M31.788 47.016H33.048V58.008H31.788V47.016ZM32.772 51.228H34.752V52.272H32.772V51.228ZM24.996 54.264H25.884C26.54 54.264 27.144 54.256 27.696 54.24C28.248 54.216 28.784 54.18 29.304 54.132C29.824 54.076 30.352 54 30.888 53.904L31.02 54.948C30.468 55.052 29.924 55.132 29.388 55.188C28.86 55.236 28.308 55.272 27.732 55.296C27.164 55.312 26.548 55.32 25.884 55.32H24.996V54.264ZM24.996 48.06H30.096V49.08H26.244V54.756H24.996V48.06ZM40.5471 47.244C41.3471 47.244 42.0391 47.328 42.6231 47.496C43.2071 47.664 43.6551 47.904 43.9671 48.216C44.2871 48.528 44.4471 48.908 44.4471 49.356C44.4471 49.788 44.2871 50.164 43.9671 50.484C43.6551 50.796 43.2071 51.036 42.6231 51.204C42.0391 51.364 41.3471 51.444 40.5471 51.444C39.7551 51.444 39.0631 51.364 38.4711 51.204C37.8871 51.036 37.4351 50.796 37.1151 50.484C36.7951 50.164 36.6351 49.788 36.6351 49.356C36.6351 48.908 36.7951 48.528 37.1151 48.216C37.4351 47.904 37.8871 47.664 38.4711 47.496C39.0631 47.328 39.7551 47.244 40.5471 47.244ZM40.5471 48.228C40.0031 48.228 39.5351 48.272 39.1431 48.36C38.7511 48.448 38.4511 48.576 38.2431 48.744C38.0351 48.904 37.9311 49.108 37.9311 49.356C37.9311 49.588 38.0351 49.788 38.2431 49.956C38.4511 50.124 38.7511 50.252 39.1431 50.34C39.5351 50.428 40.0031 50.472 40.5471 50.472C41.0911 50.472 41.5551 50.428 41.9391 50.34C42.3311 50.252 42.6311 50.124 42.8391 49.956C43.0471 49.788 43.1511 49.588 43.1511 49.356C43.1511 49.108 43.0471 48.904 42.8391 48.744C42.6311 48.576 42.3311 48.448 41.9391 48.36C41.5551 48.272 41.0911 48.228 40.5471 48.228ZM36.7791 54.192H44.3031V57.852H36.7791V54.192ZM43.0671 55.188H38.0031V56.856H43.0671V55.188ZM35.5911 52.248H45.5031V53.256H35.5911V52.248ZM50.8781 48.168H51.9701V48.564C51.9701 48.956 51.8981 49.328 51.7541 49.68C51.6181 50.024 51.4181 50.348 51.1541 50.652C50.8901 50.948 50.5781 51.212 50.2181 51.444C49.8661 51.676 49.4701 51.872 49.0301 52.032C48.5981 52.192 48.1341 52.312 47.6381 52.392L47.1701 51.396C47.6021 51.34 48.0021 51.248 48.3701 51.12C48.7461 50.992 49.0861 50.836 49.3901 50.652C49.7021 50.468 49.9661 50.264 50.1821 50.04C50.4061 49.816 50.5781 49.58 50.6981 49.332C50.8181 49.084 50.8781 48.828 50.8781 48.564V48.168ZM51.2141 48.168H52.3061V48.564C52.3061 48.828 52.3621 49.084 52.4741 49.332C52.5941 49.58 52.7661 49.816 52.9901 50.04C53.2141 50.264 53.4781 50.468 53.7821 50.652C54.0861 50.836 54.4261 50.992 54.8021 51.12C55.1781 51.248 55.5821 51.34 56.0141 51.396L55.5461 52.392C55.0501 52.312 54.5821 52.192 54.1421 52.032C53.7101 51.872 53.3141 51.676 52.9541 51.444C52.5941 51.212 52.2821 50.948 52.0181 50.652C51.7621 50.348 51.5621 50.024 51.4181 49.68C51.2821 49.328 51.2141 48.956 51.2141 48.564V48.168ZM50.9381 53.88H52.1861V57.984H50.9381V53.88ZM46.6301 53.184H56.5421V54.204H46.6301V53.184ZM47.5421 47.652H55.6181V48.648H47.5421V47.652ZM62.2172 50.076H63.9932V51.108H62.2172V50.076ZM60.2372 47.844C60.7252 47.844 61.1532 47.96 61.5212 48.192C61.8972 48.424 62.1932 48.744 62.4092 49.152C62.6332 49.56 62.7452 50.028 62.7452 50.556C62.7452 51.084 62.6332 51.556 62.4092 51.972C62.1932 52.38 61.8972 52.7 61.5212 52.932C61.1532 53.156 60.7252 53.268 60.2372 53.268C59.7572 53.268 59.3292 53.156 58.9532 52.932C58.5772 52.7 58.2812 52.38 58.0652 51.972C57.8492 51.556 57.7412 51.084 57.7412 50.556C57.7412 50.028 57.8492 49.56 58.0652 49.152C58.2812 48.744 58.5772 48.424 58.9532 48.192C59.3292 47.96 59.7572 47.844 60.2372 47.844ZM60.2372 48.936C59.9732 48.936 59.7372 49.004 59.5292 49.14C59.3292 49.268 59.1692 49.456 59.0492 49.704C58.9292 49.944 58.8692 50.228 58.8692 50.556C58.8692 50.892 58.9292 51.184 59.0492 51.432C59.1692 51.672 59.3332 51.86 59.5412 51.996C59.7492 52.132 59.9812 52.2 60.2372 52.2C60.5012 52.2 60.7372 52.132 60.9452 51.996C61.1532 51.86 61.3132 51.672 61.4252 51.432C61.5452 51.184 61.6052 50.892 61.6052 50.556C61.6052 50.228 61.5452 49.944 61.4252 49.704C61.3132 49.456 61.1532 49.268 60.9452 49.14C60.7372 49.004 60.5012 48.936 60.2372 48.936ZM65.7572 47.028H66.9572V55.2H65.7572V47.028ZM63.6452 47.22H64.8212V54.888H63.6452V47.22ZM59.6972 56.748H67.2572V57.768H59.6972V56.748ZM59.6972 54.156H60.9572V57.252H59.6972V54.156ZM74.8254 52.848H76.0854V55.092H74.8254V52.848ZM72.6774 52.176H78.3774V53.196H72.6774V52.176ZM72.6774 47.976H78.3414V48.984H73.9374V52.56H72.6774V47.976ZM73.5654 50.064H78.1134V51.048H73.5654V50.064ZM79.5894 47.016H80.8494V58.008H79.5894V47.016ZM72.0414 55.896L71.8734 54.852C72.5294 54.852 73.2534 54.848 74.0454 54.84C74.8374 54.824 75.6534 54.792 76.4934 54.744C77.3334 54.688 78.1454 54.604 78.9294 54.492L79.0254 55.416C78.2174 55.568 77.3974 55.68 76.5654 55.752C75.7414 55.816 74.9414 55.856 74.1654 55.872C73.3894 55.88 72.6814 55.888 72.0414 55.896ZM85.4565 47.928H86.4765V49.728C86.4765 50.36 86.4045 50.984 86.2605 51.6C86.1245 52.208 85.9245 52.776 85.6605 53.304C85.4045 53.832 85.0885 54.304 84.7125 54.72C84.3365 55.128 83.9125 55.452 83.4405 55.692L82.6845 54.672C83.1085 54.464 83.4925 54.188 83.8365 53.844C84.1805 53.492 84.4725 53.096 84.7125 52.656C84.9525 52.208 85.1365 51.736 85.2645 51.24C85.3925 50.736 85.4565 50.232 85.4565 49.728V47.928ZM85.6845 47.928H86.7045V49.728C86.7045 50.216 86.7645 50.7 86.8845 51.18C87.0045 51.652 87.1805 52.104 87.4125 52.536C87.6525 52.96 87.9365 53.34 88.2645 53.676C88.5925 54.012 88.9605 54.28 89.3685 54.48L88.6005 55.488C88.1445 55.248 87.7365 54.932 87.3765 54.54C87.0245 54.14 86.7205 53.684 86.4645 53.172C86.2165 52.66 86.0245 52.112 85.8885 51.528C85.7525 50.944 85.6845 50.344 85.6845 49.728V47.928ZM90.1005 47.028H91.3605V57.996H90.1005V47.028ZM91.0845 51.36H93.0645V52.416H91.0845V51.36ZM101.212 47.028H102.46V55.236H101.212V47.028ZM102.088 50.52H104.008V51.564H102.088V50.52ZM93.9156 48.276H100.384V49.272H93.9156V48.276ZM97.1556 49.788C97.6756 49.788 98.1356 49.876 98.5356 50.052C98.9356 50.22 99.2476 50.46 99.4716 50.772C99.6956 51.084 99.8076 51.448 99.8076 51.864C99.8076 52.272 99.6956 52.632 99.4716 52.944C99.2476 53.256 98.9356 53.5 98.5356 53.676C98.1356 53.852 97.6756 53.94 97.1556 53.94C96.6276 53.94 96.1636 53.852 95.7636 53.676C95.3636 53.5 95.0516 53.256 94.8276 52.944C94.6036 52.632 94.4916 52.272 94.4916 51.864C94.4916 51.448 94.6036 51.084 94.8276 50.772C95.0516 50.46 95.3636 50.22 95.7636 50.052C96.1636 49.876 96.6276 49.788 97.1556 49.788ZM97.1556 50.748C96.7236 50.748 96.3716 50.848 96.0996 51.048C95.8276 51.248 95.6916 51.52 95.6916 51.864C95.6916 52.208 95.8276 52.48 96.0996 52.68C96.3716 52.872 96.7236 52.968 97.1556 52.968C97.5876 52.968 97.9356 52.872 98.1996 52.68C98.4636 52.48 98.5956 52.208 98.5956 51.864C98.5956 51.52 98.4636 51.248 98.1996 51.048C97.9356 50.848 97.5876 50.748 97.1556 50.748ZM96.5196 47.028H97.7796V48.78H96.5196V47.028ZM95.5236 56.748H102.916V57.768H95.5236V56.748ZM95.5236 54.6H96.7836V57.192H95.5236V54.6ZM112.179 47.016H113.439V58.008H112.179V47.016ZM113.163 51.228H115.143V52.272H113.163V51.228ZM105.387 54.264H106.275C106.931 54.264 107.535 54.256 108.087 54.24C108.639 54.216 109.175 54.18 109.695 54.132C110.215 54.076 110.743 54 111.279 53.904L111.411 54.948C110.859 55.052 110.315 55.132 109.779 55.188C109.251 55.236 108.699 55.272 108.123 55.296C107.555 55.312 106.939 55.32 106.275 55.32H105.387V54.264ZM105.387 48.06H110.487V49.08H106.635V54.756H105.387V48.06Z" fill="black"/>
</g>
<defs>
<clipPath id="clip0_1_2">
<rect width="140" height="60" fill="white"/>
</clipPath>
</defs>
</svg>
